<?xml version="1.0" encoding="iso-8859-1"?>
<!-- Uploaded to: SVG Repo, www.svgrepo.com, Generator: SVG Repo Mixer Tools -->
<svg fill="#000000" height="800px" width="800px" version="1.1" id="Layer_1" xmlns="http://www.w3.org/2000/svg" xmlns:xlink="http://www.w3.org/1999/xlink" 
	 viewBox="0 0 503.682 503.682" xml:space="preserve">
<g>
	<g>
		<g>
			<circle cx="184.693" cy="453.321" r="8.393"/>
			<path d="M209.898,369.371c4.49,0,9.031-0.898,13.329-2.761c13.606-5.901,21.151-17.635,20.203-31.375
				c-0.327-4.633-4.381-8.142-8.956-7.797c-4.625,0.327-8.116,4.339-7.797,8.956c0.613,8.805-6.085,13.06-10.122,14.814
				c-6.564,2.837-14.177,1.217-19.011-3.978c-3.148-3.408-8.469-3.592-11.86-0.445c-3.391,3.156-3.592,8.461-0.436,11.86
				C191.735,365.636,200.732,369.371,209.898,369.371z"/>
			<path d="M268.628,402.961c0,27.774-22.587,50.361-50.361,50.361c-4.642,0-8.393,3.76-8.393,8.393
				c0,4.633,3.752,8.393,8.393,8.393c37.023,0,67.148-30.124,67.148-67.148c0-4.633-3.752-8.393-8.393-8.393
				C272.38,394.567,268.628,398.327,268.628,402.961z"/>
			<path d="M402.923,243.485c-20.984,0-40.465,6.463-56.614,17.475c-84.841-44.645-124.005-98.321-127.639-173.593
				c12.624,3.66,25.105,5.514,37.023,5.514c16.93,0,32.709-3.693,46.08-11.037c20.849-11.465,34.682-31.123,40.003-56.857
				c0.713-3.441-0.797-6.958-3.777-8.822c-28.118-17.526-58.2-20.933-84.707-9.577c-20.438,8.754-36.26,25.583-45.409,47.406
				C191.568,26.766,169.913,8.2,146.47,2.249c-21.966-5.598-44.838,0.042-66.14,16.233c-3.106,2.367-4.18,6.564-2.56,10.131
				c15.201,33.716,40.07,57.755,68.239,65.93c6.026,1.754,12.12,2.602,18.231,2.862c-40.507,34.044-72.872,83.775-79.133,172.603
				c-48.111,7.554-85.068,49.177-85.068,99.378c0,55.539,45.182,100.721,100.721,100.721c12.666,0,24.979-2.51,36.772-7.185
				c18.373,24.677,47.675,40.759,80.737,40.759c55.539,0,100.721-45.182,100.721-100.721c0-1.175-0.134-2.325-0.176-3.492
				c18.029,27.346,48.976,45.459,84.111,45.459c55.539,0,100.721-45.182,100.721-100.721
				C503.644,288.667,458.462,243.485,402.923,243.485z M183.585,103.575c-39.516,71.672-51.796,130.845-36.738,176.38
				c-13.639-7.051-28.873-10.995-44.771-11.205C108.33,184.89,138.597,138.131,183.585,103.575z M100.759,436.534
				c-37.023,0-67.148-30.124-67.148-67.148c0-4.633,3.752-8.393,8.393-8.393s8.393,3.76,8.393,8.393
				c0,27.774,22.587,50.361,50.361,50.361c4.642,0,8.393,3.76,8.393,8.393S105.401,436.534,100.759,436.534z M107.398,333.035
				c-4.297,1.863-8.838,2.77-13.337,2.77c-9.157,0-18.155-3.744-24.635-10.735c-3.148-3.399-2.955-8.712,0.445-11.86
				c3.399-3.156,8.704-2.955,11.86,0.445c4.843,5.221,12.473,6.815,18.994,3.978c4.046-1.754,10.735-6.01,10.131-14.814
				c-0.311-4.625,3.173-8.628,7.806-8.956c4.65-0.294,8.62,3.173,8.947,7.797C128.558,315.409,121.004,327.134,107.398,333.035z
				 M218.267,486.895c-29.855,0-56.051-15.721-70.933-39.265c-1.939-3.072-3.659-6.245-5.179-9.501
				c-0.134-0.294-0.285-0.579-0.411-0.873c-1.553-3.433-2.871-6.958-3.937-10.551c-0.101-0.336-0.168-0.688-0.269-1.032
				c-0.873-3.089-1.536-6.245-2.048-9.417c-0.134-0.839-0.277-1.679-0.386-2.526c-0.462-3.559-0.772-7.151-0.772-10.769
				c0-3.676,0.311-7.311,0.789-10.903c0.101-0.73,0.218-1.461,0.336-2.182c3.064-19.036,12.624-36.503,26.884-49.328
				c0.05-0.042,0.092-0.084,0.143-0.126c5.279-4.726,11.272-8.721,17.727-12.028c13.841,11.054,26.213,15.133,27.144,15.427
				c0.839,0.26,1.679,0.386,2.518,0.386c3.55,0,6.841-2.283,7.982-5.85c1.402-4.407-1.041-9.124-5.431-10.542
				c-0.554-0.176-6.018-2.031-13.278-6.505c6.152-1.444,12.531-2.283,19.12-2.283c46.281,0,83.934,37.653,83.934,83.934
				S264.549,486.895,218.267,486.895z M302.202,344.206c0,1.175,0.134,2.325,0.176,3.492
				c-18.029-27.346-48.976-45.459-84.111-45.459c-12.322,0-24.072,2.333-34.992,6.396c-7.453-7.546-14.739-17.685-19.683-31.291
				c-15.352-42.295-1.603-102.199,39.567-174.172c8.133,71.495,49.06,125.448,129.125,169.346
				C313.743,290.799,302.202,316.172,302.202,344.206z M352.562,360.993c-4.633,0-8.393-3.76-8.393-8.393
				c0-4.633,3.76-8.393,8.393-8.393s8.393,3.76,8.393,8.393C360.956,357.233,357.195,360.993,352.562,360.993z M377.768,320.764
				c-9.166,0-18.163-3.735-24.652-10.727c-3.156-3.399-2.954-8.704,0.436-11.86c3.383-3.156,8.704-2.963,11.86,0.445
				c4.826,5.195,12.448,6.807,19.011,3.978c6.505-2.82,10.559-9.485,10.064-16.569c-0.311-4.625,3.173-8.628,7.806-8.956
				c4.6-0.277,8.62,3.173,8.947,7.798c0.974,14.168-7.118,27.48-20.144,33.129C386.799,319.865,382.258,320.764,377.768,320.764z
				 M402.923,411.354c-4.642,0-8.393-3.76-8.393-8.393c0-4.633,3.752-8.393,8.393-8.393c27.774,0,50.361-22.587,50.361-50.361
				c0-4.633,3.752-8.393,8.393-8.393s8.393,3.76,8.393,8.393C470.07,381.23,439.946,411.354,402.923,411.354z"/>
		</g>
	</g>
</g>
</svg>