<?xml version="1.0" encoding="iso-8859-1"?>
<!-- Uploaded to: SVG Repo, www.svgrepo.com, Generator: SVG Repo Mixer Tools -->
<svg fill="#000000" height="800px" width="800px" version="1.1" id="Layer_1" xmlns="http://www.w3.org/2000/svg" xmlns:xlink="http://www.w3.org/1999/xlink" 
	 viewBox="0 0 503.671 503.671" xml:space="preserve">
<g>
	<g>
		<path d="M380.615,256.56c-19.422-26.112-36.251-54.557-50.008-84.539c-15.024-32.743-39.374-46.793-69.347-40.633
			c6.555-42.395,48.313-80.98,90.901-80.98c4.633,0,8.393-3.76,8.393-8.393s-3.76-8.393-8.393-8.393
			c-33.557,0-65.922,19.204-86.494,46.642c-16.544-59.585-65.091-75.054-86.889-78.94c-9.392-1.679-15.595-2.787-18.734,3.282
			c-0.663,1.284-0.982,2.728-0.932,4.172c0.042,0.873,4.289,83.699,90.632,100.495c-2.686,7.286-4.625,14.798-5.556,22.452
			c-30.737-7.05-55.724,6.933-71.017,40.272c-12.011,26.162-27.48,52.3-50.159,84.74c-65.284,93.377-9.728,160.827,23.468,201.124
			c5.447,6.614,10.148,12.322,13.623,17.282c15.771,22.57,34.782,28.529,50.453,28.529c7.613,0,14.445-1.41,19.733-3.005
			c3.853-1.158,14.193-5.103,21.655-10.5c8.696,6.119,20.975,10.097,21.168,10.156c28.538,8.931,54.314-0.336,70.706-25.357
			c3.685-5.632,8.746-12.103,14.596-19.599C391.006,413.652,445.547,343.827,380.615,256.56z"/>
	</g>
</g>
</svg>