<?xml version="1.0" encoding="iso-8859-1"?>
<!-- Uploaded to: SVG Repo, www.svgrepo.com, Generator: SVG Repo Mixer Tools -->
<svg fill="#000000" height="800px" width="800px" version="1.1" id="Layer_1" xmlns="http://www.w3.org/2000/svg" xmlns:xlink="http://www.w3.org/1999/xlink" 
	 viewBox="0 0 503.698 503.698" xml:space="preserve">
<g>
	<g>
		<g>
			<path d="M205.501,426.108c1.427,1.779,3.29,2.048,4.264,2.048c0.982,0,2.845-0.269,4.272-2.048l11.843-14.806h-32.609
				L205.501,426.108z"/>
			<path d="M155.14,325.387c1.427,1.779,3.29,2.048,4.264,2.048c0.982,0,2.845-0.269,4.272-2.048l11.843-14.806h-32.609
				L155.14,325.387z"/>
			<path d="M209.787,226.714c0.982,0,2.845-0.269,4.272-2.056l11.835-14.798h-32.609l12.229,14.806
				C206.942,226.446,208.805,226.714,209.787,226.714z"/>
			<path d="M310.435,226.714c0.982,0,2.845-0.269,4.272-2.056l11.843-14.798h-32.609l12.229,14.806
				C307.598,226.446,309.461,226.714,310.435,226.714z"/>
			<path d="M255.795,325.382c1.427,1.788,3.29,2.056,4.264,2.056c0.982,0,2.845-0.269,4.272-2.056l11.835-14.798h-32.609
				L255.795,325.382z"/>
			<path d="M356.516,325.382c1.427,1.788,3.29,2.056,4.264,2.056c0.982,0,2.845-0.269,4.272-2.056l11.835-14.798h-32.609
				L356.516,325.382z"/>
			<path d="M428.009,327.276l-2.82-67.777c-2.871-60.298-45.887-109.266-102.518-121.864c20.119-7.437,49.672-4.49,91.799,28.319
				c1.502,1.175,3.324,1.771,5.154,1.771c1.662,0,3.324-0.487,4.759-1.477c3.022-2.082,4.339-5.875,3.265-9.375
				c-0.881-2.871-22.108-70.446-71.571-85.907c-9.417-2.938-19.104-3.802-29.134-2.577c15.058-10.483,31.232-18.625,45.299-17.777
				c9.359,0.52,17.215,4.927,24.039,13.471c2.703,3.391,7.554,4.155,11.188,1.763c3.626-2.401,4.818-7.168,2.753-10.995
				c-1.024-1.897-25.667-46.441-75.424-53.827c-39.172-5.792-81.668,13.027-126.539,55.993
				c-22.008-10.609-43.126-11.969-62.867-4.088c-47.28,18.91-68.625,84.522-69.506,87.309c-1.116,3.508,0.176,7.327,3.206,9.426
				c3.013,2.115,7.05,1.998,9.946-0.26c32.592-25.39,61.205-35.555,84.992-30.326c13.723,3.03,23.334,10.878,29.268,17.416
				c-59.417,10.483-105.229,60.71-108.192,123.056l-2.82,67.676c-2.216,46.6,14.244,90.809,46.34,124.475
				c31.979,33.532,75.138,51.997,121.52,51.997s89.541-18.466,121.512-51.997C413.766,418.034,430.225,373.826,428.009,327.276z
				 M327.993,193.073c6.245,0,11.801,3.5,14.504,9.124c2.711,5.632,1.964,12.145-1.931,17.022l-12.75,15.931
				c-4.247,5.305-10.576,8.351-17.383,8.351c-6.79,0-13.119-3.047-17.374-8.351l-12.548-15.696
				c-3.937-4.91-4.692-11.491-1.964-17.173c2.728-5.674,8.335-9.208,14.638-9.208H327.993z M177.96,102.76
				c-22.419-5.061-47.515,0.529-74.777,16.611c9.762-18.583,25.877-41.841,48.481-50.873c16.51-6.589,34.707-4.541,54.079,6.102
				c3.248,1.771,7.302,1.225,9.946-1.393c42.462-41.992,81.66-60.676,116.484-55.607c15.058,2.207,27.505,8.738,37.25,16.174
				c-33.658,0.554-70.136,32.743-98.43,61.113c-3.139,3.148-3.282,8.192-0.327,11.507c2.963,3.332,7.999,3.76,11.465,1.007
				c25.281-19.918,48.439-26.792,68.893-20.421c23.418,7.294,39.785,30.46,49.547,49.102
				c-23.082-13.648-42.563-18.575-58.695-18.575c-21.151,0-36.503,8.494-46.542,16.946c-0.462-0.008-0.898-0.067-1.36-0.067h-67.651
				c-0.143,0-0.277,0.017-0.42,0.017h-2.971C217.367,125.951,203.124,108.425,177.96,102.76z M177.901,202.281
				c2.728-5.674,8.335-9.208,14.638-9.208h34.808c6.236,0,11.793,3.5,14.495,9.124c2.703,5.624,1.964,12.145-1.93,17.022
				l-12.741,15.931c-4.255,5.305-10.584,8.351-17.383,8.351c-6.807,0-13.136-3.047-17.383-8.351l-12.557-15.696
				C175.921,214.535,175.174,207.955,177.901,202.281z M159.402,344.222c-6.799,0-13.127-3.047-17.374-8.352l-12.548-15.696
				c-3.937-4.91-4.684-11.491-1.964-17.165c2.728-5.682,8.335-9.216,14.638-9.216h34.816c6.236,0,11.793,3.5,14.495,9.124
				c2.711,5.624,1.964,12.145-1.93,17.022l-12.75,15.931C172.53,341.176,166.201,344.222,159.402,344.222z M239.895,420.661
				l-12.75,15.931c-4.255,5.305-10.584,8.351-17.383,8.351c-6.799,0-13.127-3.047-17.374-8.351l-12.548-15.696
				c-3.937-4.91-4.684-11.491-1.964-17.165c2.728-5.682,8.335-9.216,14.638-9.216h34.816c6.236,0,11.793,3.5,14.495,9.124
				C244.537,409.263,243.79,415.785,239.895,420.661z M260.056,344.222c-6.79,0-13.119-3.047-17.374-8.352l-12.557-15.687
				c-3.937-4.927-4.684-11.507-1.956-17.181c2.736-5.674,8.335-9.208,14.638-9.208h34.808c6.245,0,11.793,3.5,14.495,9.124
				c2.711,5.624,1.972,12.145-1.93,17.022l-12.741,15.931C273.192,341.176,266.864,344.222,260.056,344.222z M340.541,420.661
				L327.8,436.592c-4.247,5.305-10.576,8.351-17.383,8.351c-6.79,0-13.119-3.047-17.374-8.351l-12.557-15.687
				c-3.937-4.927-4.684-11.507-1.956-17.181c2.728-5.674,8.335-9.208,14.638-9.208h34.808c6.245,0,11.793,3.5,14.495,9.124
				C345.183,409.263,344.444,415.785,340.541,420.661z M390.902,319.94l-12.741,15.931c-4.247,5.305-10.576,8.352-17.383,8.352
				c-6.79,0-13.119-3.047-17.374-8.352l-12.557-15.687c-3.937-4.927-4.684-11.507-1.956-17.181
				c2.736-5.674,8.335-9.208,14.638-9.208h34.808c6.245,0,11.793,3.5,14.495,9.124C395.543,308.542,394.805,315.064,390.902,319.94z
				"/>
			<path d="M306.156,426.104c1.427,1.788,3.29,2.056,4.264,2.056c0.982,0,2.845-0.269,4.272-2.056l11.835-14.798h-32.609
				L306.156,426.104z"/>
		</g>
	</g>
</g>
</svg>